#!OML:ASF G:\JayActor3\Patient Classification 1\Patient 1\Session 2\male.ASF
:FULLY-SPECIFIED
:DEGREES
3086
root 19.2246 16.2968 -8.2653 -372.005 -73.9712 19.2404
lowerback 10.4092 -1.83753 -1.00148
upperback 3.53777 -2.59458 1.41445
thorax -2.03812 -1.34308 2.33762
lowerneck -16.3601 -4.54584 -3.83319
upperneck 16.8779 -6.53189 5.79836
head 8.25901 -2.78753 1.77803
rclavicle 1.43125e-014 7.95139e-015
rhumerus -52.0752 10.564 -81.4777
rradius 52.1102
rwrist -6.28388
rhand -25.1543 5.36975
rfingers 7.12502
rthumb 1.36254 -24.6056
lclavicle 1.43125e-014 7.95139e-015
lhumerus -29.4796 -51.378 100.847
lradius 90.7999
lwrist 15.9121
lhand -14.1045 13.5701
lfingers 7.12502
lthumb 12.0283 43.2044
rfemur -43.7773 -2.64913 12.6672
rtibia 42.6793
rfoot -18.2108 -10.6031
rtoes 14.5211
lfemur 10.7635 6.49062 -19.3222
ltibia 18.5264
lfoot -9.72125 -5.61374
ltoes -23.4723
3087
root 19.0917 16.2888 -8.27439 -372.716 -74.0788 20.1335
lowerback 10.4395 -1.77912 -0.935655
upperback 3.55688 -2.51035 1.48702
thorax -2.03831 -1.30208 2.36689
lowerneck -16.2636 -4.4978 -3.69882
upperneck 16.7452 -6.45868 5.63856
head 8.1832 -2.76338 1.71409
rclavicle -1.19271e-015 -2.38542e-014
rhumerus -51.7083 10.4529 -81.4442
rradius 51.8199
rwrist -6.26751
rhand -25.1739 5.38213
rfingers 7.12502
rthumb 1.34364 -24.5934
lclavicle -1.19271e-015 -2.38542e-014
lhumerus -30.0078 -50.9213 101.337
lradius 90.2334
lwrist 15.6854
lhand -14.5482 13.7037
lfingers 7.12502
lthumb 11.6005 43.3626
rfemur -44.0236 -2.81928 12.7375
rtibia 43.4566
rfoot -17.6407 -10.4234
rtoes 15.3868
lfemur 10.5585 6.59529 -19.3464
ltibia 19.3273
lfoot -9.24463 -5.54966
ltoes -23.7799
3088
root 18.9601 16.2824 -8.28266 -373.472 -74.1768 21.0716
lowerback 10.4577 -1.72253 -0.87464
upperback 3.57536 -2.42899 1.55667
thorax -2.03235 -1.26254 2.39565
lowerneck -16.1895 -4.4532 -3.56867
upperneck 16.6699 -6.39285 5.47825
head 8.1314 -2.74189 1.64931
rclavicle 1.03368e-014 -1.82882e-014
rhumerus -51.3361 10.3249 -81.3988
rradius 51.5774
rwrist -6.27513
rhand -25.2023 5.35476
rfingers 7.12502
rthumb 1.31615 -24.6209
lclavicle 1.03368e-014 -1.82882e-014
lhumerus -30.5362 -50.449 101.809
lradius 89.536
lwrist 15.4582
lhand -14.9962 13.8488
lfingers 7.12502
lthumb 11.1684 43.5316
rfemur -44.2371 -2.99567 12.7882
rtibia 44.2166
rfoot -17.2744 -10.2412
rtoes 16.2798
lfemur 10.2458 6.65013 -19.4019
ltibia 20.2859
lfoot -8.74203 -5.44278
ltoes -23.9193
3089
root 18.8295 16.2784 -8.29044 -374.178 -74.2551 21.9565
lowerback 10.4643 -1.67217 -0.797898
upperback 3.59095 -2.35407 1.63105
thorax -2.02318 -1.22614 2.42081
lowerneck -16.1383 -4.4096 -3.44197
upperneck 16.6527 -6.33068 5.31544
head 8.10351 -2.72148 1.58327
rclavicle 6.75868e-015 -3.97569e-015
rhumerus -50.9742 10.1828 -81.3436
rradius 51.3906
rwrist -6.29306
rhand -25.2543 5.30924
rfingers 7.12502
rthumb 1.26597 -24.6667
lclavicle 6.75868e-015 -3.97569e-015
lhumerus -31.0543 -49.9652 102.262
lradius 88.7074
lwrist 15.2333
lhand -15.4031 14.005
lfingers 7.12502
lthumb 10.7759 43.7086
rfemur -44.4106 -3.17092 12.8357
rtibia 44.9404
rfoot -17.083 -10.0571
rtoes 17.0232
lfemur 9.83792 6.62951 -19.4649
ltibia 21.3814
lfoot -8.21219 -5.28873
ltoes -23.8184
3090
root 18.6995 16.2771 -8.29805 -374.749 -74.3132 22.698
lowerback 10.455 -1.63158 -0.690524
upperback 3.60425 -2.28868 1.71822
thorax -2.00788 -1.19447 2.44256
lowerneck -16.1008 -4.36394 -3.30987
upperneck 16.6762 -6.26714 5.14091
head 8.09116 -2.70053 1.51228
rclavicle 4.13472e-014 -1.11319e-014
rhumerus -50.6291 10.038 -81.2822
rradius 51.2637
rwrist -6.317
rhand -25.3246 5.25165
rfingers 7.12502
rthumb 1.19809 -24.7247
lclavicle 4.13472e-014 -1.11319e-014
lhumerus -31.5643 -49.4632 102.695
lradius 87.7592
lwrist 15.0231
lhand -15.7427 14.1431
lfingers 7.12502
lthumb 10.4483 43.8635
rfemur -44.5248 -3.32748 12.8982
rtibia 45.6059
rfoot -17.0466 -9.85239
rtoes 17.6239
lfemur 9.34776 6.53098 -19.5116
ltibia 22.5971
lfoot -7.69311 -5.07317
ltoes -23.6438
3091
root 18.57 16.2791 -8.30556 -375.129 -74.3509 23.2355
lowerback 10.4327 -1.60199 -0.537791
upperback 3.61699 -2.23317 1.82148
thorax -1.98659 -1.16774 2.45619
lowerneck -16.0684 -4.31386 -3.16096
upperneck 16.718 -6.19861 4.94622
head 8.08458 -2.67784 1.43231
rclavicle 4.45278e-014 -1.59028e-015
rhumerus -50.2996 9.89006 -81.2143
rradius 51.193
rwrist -6.32719
rhand -25.4366 5.22606
rfingers 7.12502
rthumb 1.08989 -24.7509
lclavicle 4.45278e-014 -1.59028e-015
lhumerus -32.0534 -48.9442 103.103
lradius 86.6987
lwrist 14.8367
lhand -15.9929 14.2603
lfingers 7.12502
lthumb 10.207 43.9927
rfemur -44.5632 -3.45338 12.9876
rtibia 46.1933
rfoot -17.1356 -9.63716
rtoes 18.0977
lfemur 8.79403 6.35502 -19.5274
ltibia 23.9091
lfoot -7.20463 -4.78975
ltoes -23.4236
3092
root 18.4416 16.2846 -8.31247 -375.288 -74.3793 23.5477
lowerback 10.3944 -1.58376 -0.328294
upperback 3.62585 -2.18691 1.94326
thorax -1.96147 -1.1455 2.4577
lowerneck -16.0354 -4.25576 -3.00837
upperneck 16.7645 -6.11835 4.74253
head 8.07881 -2.65023 1.35017
rclavicle 3.22031e-014 -1.59028e-015
rhumerus -49.977 9.75453 -81.143
rradius 51.1643
rwrist -6.32319
rhand -25.5713 5.21375
rfingers 7.12502
rthumb 0.959796 -24.7638
lclavicle 3.22031e-014 -1.59028e-015
lhumerus -32.52 -48.3962 103.484
lradius 85.5416
lwrist 14.6879
lhand -16.1509 14.3689
lfingers 7.12502
lthumb 10.0546 44.1087
rfemur -44.5349 -3.54153 13.113
rtibia 46.6885
rfoot -17.3178 -9.43935
rtoes 18.4612
lfemur 8.17489 6.12173 -19.5103
ltibia 25.2973
lfoot -6.78726 -4.42746
ltoes -23.2563
